<mxfile host="Electron" agent="Mozilla/5.0 (Windows NT 10.0; Win64; x64) AppleWebKit/537.36 (KHTML, like Gecko) draw.io/26.0.4 Chrome/128.0.6613.186 Electron/32.2.5 Safari/537.36" version="26.0.4">
  <diagram name="Page-1" id="e3a06f82-3646-2815-327d-82caf3d4e204">
    <mxGraphModel dx="2206" dy="2525" grid="1" gridSize="10" guides="1" tooltips="1" connect="1" arrows="1" fold="1" page="1" pageScale="1.5" pageWidth="1169" pageHeight="826" background="none" math="0" shadow="0">
      <root>
        <mxCell id="0" style=";html=1;" />
        <mxCell id="1" style=";html=1;" parent="0" />
        <mxCell id="4hPwGx1GiWuIFKirFlOj-53" value="" style="rounded=1;whiteSpace=wrap;html=1;" parent="1" vertex="1">
          <mxGeometry x="818.5" y="745" width="330" height="430" as="geometry" />
        </mxCell>
        <mxCell id="6a7d8f32e03d9370-35" style="edgeStyle=none;rounded=0;html=1;startSize=10;endSize=10;jettySize=auto;orthogonalLoop=1;fontSize=14;endArrow=none;endFill=0;strokeWidth=2;" parent="1" source="6a7d8f32e03d9370-2" edge="1">
          <mxGeometry relative="1" as="geometry">
            <mxPoint x="810" y="1430" as="targetPoint" />
          </mxGeometry>
        </mxCell>
        <mxCell id="6a7d8f32e03d9370-2" value="Client" style="verticalLabelPosition=bottom;aspect=fixed;html=1;verticalAlign=top;strokeColor=none;shape=mxgraph.citrix.laptop_2;fillColor=#66B2FF;gradientColor=#0066CC;fontSize=14;" parent="1" vertex="1">
          <mxGeometry x="399.9999999999999" y="1360" width="116" height="86.5" as="geometry" />
        </mxCell>
        <mxCell id="4hPwGx1GiWuIFKirFlOj-36" value="" style="group" parent="1" vertex="1" connectable="0">
          <mxGeometry x="820" y="-130" width="330" height="164.85" as="geometry" />
        </mxCell>
        <mxCell id="4hPwGx1GiWuIFKirFlOj-34" value="" style="rounded=1;whiteSpace=wrap;html=1;" parent="4hPwGx1GiWuIFKirFlOj-36" vertex="1">
          <mxGeometry width="330" height="160" as="geometry" />
        </mxCell>
        <mxCell id="4hPwGx1GiWuIFKirFlOj-32" value="" style="shape=image;verticalLabelPosition=bottom;labelBackgroundColor=default;verticalAlign=top;aspect=fixed;imageAspect=0;image=https://upload.wikimedia.org/wikipedia/commons/thumb/2/23/Go_Logo_Aqua.svg/131px-Go_Logo_Aqua.svg.png;" parent="4hPwGx1GiWuIFKirFlOj-36" vertex="1">
          <mxGeometry x="20" y="90" width="131" height="49" as="geometry" />
        </mxCell>
        <mxCell id="h6XL0W72zEE4KMJTRrk2-8" value="App" style="text;html=1;align=center;verticalAlign=middle;whiteSpace=wrap;rounded=0;fontSize=19;fontStyle=1" parent="4hPwGx1GiWuIFKirFlOj-36" vertex="1">
          <mxGeometry x="141.00000000000006" y="10" width="48" height="30" as="geometry" />
        </mxCell>
        <mxCell id="4hPwGx1GiWuIFKirFlOj-39" value="" style="shape=image;verticalLabelPosition=bottom;labelBackgroundColor=default;verticalAlign=top;aspect=fixed;imageAspect=0;image=https://linuxiac.com/wp-content/uploads/2021/06/what-is-docker-container.png;clipPath=inset(1.92% 79.33% 13.46% 0.67%);" parent="4hPwGx1GiWuIFKirFlOj-36" vertex="1">
          <mxGeometry x="230" y="40" width="75.58" height="110.85" as="geometry" />
        </mxCell>
        <mxCell id="4hPwGx1GiWuIFKirFlOj-40" value="Code" style="text;html=1;align=center;verticalAlign=middle;whiteSpace=wrap;rounded=0;fontSize=19;" parent="4hPwGx1GiWuIFKirFlOj-36" vertex="1">
          <mxGeometry x="70" y="60" width="48" height="30" as="geometry" />
        </mxCell>
        <mxCell id="4hPwGx1GiWuIFKirFlOj-100" value="" style="shape=image;verticalLabelPosition=bottom;labelBackgroundColor=default;verticalAlign=top;aspect=fixed;imageAspect=0;image=data:image/png,iVBORw0KGgoAAAANSUhEUgAAAEIAAABGCAYAAAB4xUL+AAAAAXNSR0IArs4c6QAAAARnQU1BAACxjwv8YQUAAAAJcEhZcwAAHYcAAB2HAY/l8WUAAATlSURBVHhe7ZtNcuI4FIBfzzH8TjA1VbNCOkFXV68acwI6nU2DOQGEFQMnCGFFJ5wAk1UqlRPYWU3V1JxAPsLU1Gx6FsiMkS3pyTaG9PjbpBAkWJ+enn7z7q+///kOLfCTWvB/pRUhaUVIWhGSd+dMlkIkR68RvaPXTdKIiG24gzh+BZEkIITICciC6AEiAnoe+P4nQA8bEXQyEdtwB+HuEaIoVt9yhnMGfvcTcMZOJqVWEUIksLxbwTbcqW/VRs/vQjAc1C6kNhG3yxUs71Zq8ckIhgPo+d3ahFQWsQ13MJ5M1eLGWMxn0PO7arEzlUT0r65ryQFVqSM6SokQIoHxzfQiJKRwzmDx26y0DGcRURzDeDI1DoHnAtGDzf23UjKcRAiRwPsPH9Xii6KsDKcp9vjmfEmRihAJ9K++OEcsWcSlJEYKQiTOcxmSiNvlyiih53dh87CGzcMaOD/d7A/kdy3mM3h5foJgOFDfPrC8W8Htkj6vseYISl7YPKyBM3ZUNp5MIYpj5xDVoZtR/vzLr0evVV6en3K/U4RVhK1LIHrw8vykFgPIESYMH2Eb7g6THsY6hwdDDw+fFYnY/xQJCJFA/PoKQghARAiGX3OiU95/+GiUnUaQDaMISjSYRDSBraGAGBXGHNG/+qIW5UD8r1XPAXrmCgJxtNOK2IY7Y8hdCiKxP2MUxdZRRCsijl/VokKiqL6EWAZbt0ix1adQRJlx+BwIkVj7footwotFyAxO4dTzBhOIHvhd+hI8ivXRUygiisxhlGVzv1aLGmUU5OcWOkzdo1AEdafJNLNrEmpUmLp7ToSpH6mMgssQ4RIVuvrlRFChfvFbISeCmijPPZFS0U3BVXT1y4mgJkrW6ahFZ4Ux2vPU3jXeKmQRCWHKCg6fawpdBankRHiERcyPSE4EdTSgLHaapGqE5kRQOfdiS8U0Wcqia+icCN0HizDN3ZvEpUF09cuJoI7HYJm7Nwk1GsBQv5wIMFhTsS1tm0DIqwgUTPUqFKGzVgT1IU6FSzSYFmeFIqizNJAP4nJ+UCfbcFdbQ2h3sW3b5Cp1HM27UOZexp9//K4WHSiMCHDsHiC7yPjm9KfkQiTQv7p2lmDbO9FGRBTH0P98fVSG6B1Om8LwUXuSxTmDYPi11htx24qX02xnG1oRoOke2as6lLsSnO8ji3U6Ths5W3klUSfbBSQcQmm7BshKq4wn00Ny5IxZ7yJEUQxRFAPn9AQMmZ30qhJAUw8VowjOWOFFrexJMxJ2khE955wzCvbJtyo9v0v6bqMIkEmmqMWXd6tDa42CgTEZ2UTpcBnGi0D0SNEAFBGmFs+O4aNgkLsfgehBz+865YYsRQ3ggu65izAmyyy6C6W2bFwFQTiN10G9DpBijYiUUTA4jABZytxXOjWcMycJ4CIC5KmW2voivXN5IUtyRK/U6Ru5a6TsZ3bFUYCZfzFIieLYOsTqcO0anLNSEqCMiJTxZEpe+ZXNIy4iqkgA166RZTGfaYfWpgmGg0oSoIoIkAl0MS9//7kqnDPYPKxLD89ZKokAOft8eX5qXMhiPoPNff5aY1lK5wgd6WZJNpma9gFsZBd+KFe/dUy9VWoXkZLesfT9/f9ilSVdhVb9OzZOJuKtUTlH/Ci0IiStCEkrQtKKkLQiJK0ISStC0oqQ/AuQ/Yw8Umsg3AAAAABJRU5ErkJggg==;direction=east;" parent="4hPwGx1GiWuIFKirFlOj-36" vertex="1">
          <mxGeometry x="10" y="10" width="50" height="53.03" as="geometry" />
        </mxCell>
        <mxCell id="4hPwGx1GiWuIFKirFlOj-48" style="rounded=0;orthogonalLoop=1;jettySize=auto;html=1;exitX=0.44;exitY=0.976;exitDx=0;exitDy=0;exitPerimeter=0;" parent="1" target="4hPwGx1GiWuIFKirFlOj-47" edge="1" source="oefUEezAQd85SVfJ0pMh-3">
          <mxGeometry relative="1" as="geometry">
            <mxPoint x="983.5" y="520" as="sourcePoint" />
          </mxGeometry>
        </mxCell>
        <mxCell id="4hPwGx1GiWuIFKirFlOj-49" value="&lt;font style=&quot;font-size: 16px;&quot;&gt;Publish if tests were passed&lt;/font&gt;" style="edgeLabel;html=1;align=center;verticalAlign=middle;resizable=0;points=[];" parent="4hPwGx1GiWuIFKirFlOj-48" vertex="1" connectable="0">
          <mxGeometry x="-0.0726" y="2" relative="1" as="geometry">
            <mxPoint y="1" as="offset" />
          </mxGeometry>
        </mxCell>
        <mxCell id="4hPwGx1GiWuIFKirFlOj-38" value="" style="shape=image;verticalLabelPosition=bottom;labelBackgroundColor=default;verticalAlign=top;aspect=fixed;imageAspect=0;image=https://linuxiac.com/wp-content/uploads/2021/06/what-is-docker-container.png;clipPath=inset(1.92% 40.33% 14.42% 31.33%);" parent="1" vertex="1">
          <mxGeometry x="918.41" y="150" width="132.14" height="135.25" as="geometry" />
        </mxCell>
        <mxCell id="4hPwGx1GiWuIFKirFlOj-43" style="rounded=0;orthogonalLoop=1;jettySize=auto;html=1;" parent="1" source="4hPwGx1GiWuIFKirFlOj-34" target="4hPwGx1GiWuIFKirFlOj-38" edge="1">
          <mxGeometry relative="1" as="geometry" />
        </mxCell>
        <mxCell id="4hPwGx1GiWuIFKirFlOj-45" value="Build" style="edgeLabel;html=1;align=center;verticalAlign=middle;resizable=0;points=[];fontSize=18;" parent="4hPwGx1GiWuIFKirFlOj-43" vertex="1" connectable="0">
          <mxGeometry x="-0.3929" y="4" relative="1" as="geometry">
            <mxPoint x="-5" y="43" as="offset" />
          </mxGeometry>
        </mxCell>
        <mxCell id="4hPwGx1GiWuIFKirFlOj-50" style="rounded=0;orthogonalLoop=1;jettySize=auto;html=1;entryX=0.5;entryY=0;entryDx=0;entryDy=0;" parent="1" source="4hPwGx1GiWuIFKirFlOj-47" target="4hPwGx1GiWuIFKirFlOj-75" edge="1">
          <mxGeometry relative="1" as="geometry">
            <mxPoint x="983.5000000000005" y="745" as="targetPoint" />
          </mxGeometry>
        </mxCell>
        <mxCell id="4hPwGx1GiWuIFKirFlOj-51" value="&lt;font style=&quot;font-size: 16px;&quot;&gt;Kubernetes Deployment&lt;/font&gt;" style="edgeLabel;html=1;align=center;verticalAlign=middle;resizable=0;points=[];" parent="4hPwGx1GiWuIFKirFlOj-50" vertex="1" connectable="0">
          <mxGeometry x="-0.0539" y="4" relative="1" as="geometry">
            <mxPoint y="1" as="offset" />
          </mxGeometry>
        </mxCell>
        <mxCell id="4hPwGx1GiWuIFKirFlOj-47" value="" style="shape=image;verticalLabelPosition=bottom;labelBackgroundColor=default;verticalAlign=top;aspect=fixed;imageAspect=0;image=https://www.unixtutorial.org/images/software/docker-hub.png;" parent="1" vertex="1">
          <mxGeometry x="871.5" y="580" width="224" height="93.99" as="geometry" />
        </mxCell>
        <mxCell id="4hPwGx1GiWuIFKirFlOj-75" value="" style="shape=image;verticalLabelPosition=bottom;labelBackgroundColor=default;verticalAlign=top;aspect=fixed;imageAspect=0;image=https://uploads-ssl.webflow.com/5e5a5c35a623e45f7f701878/5e99435c7ab3fdfb624ac319_Screen-Shot-2020-03-11-at-12.50.59-AM-768x616.png;clipPath=inset(0.62% 4.33% 79.88% 80%);" parent="1" vertex="1">
          <mxGeometry x="926" y="765" width="115" height="115" as="geometry" />
        </mxCell>
        <mxCell id="4hPwGx1GiWuIFKirFlOj-78" style="rounded=0;orthogonalLoop=1;jettySize=auto;html=1;exitX=0.5;exitY=1;exitDx=0;exitDy=0;entryX=0.469;entryY=0.005;entryDx=0;entryDy=0;entryPerimeter=0;" parent="1" source="4hPwGx1GiWuIFKirFlOj-75" target="4hPwGx1GiWuIFKirFlOj-80" edge="1">
          <mxGeometry relative="1" as="geometry">
            <mxPoint x="983.5" y="910" as="sourcePoint" />
            <mxPoint x="983.5" y="965" as="targetPoint" />
          </mxGeometry>
        </mxCell>
        <mxCell id="4hPwGx1GiWuIFKirFlOj-79" value="&lt;font style=&quot;font-size: 16px;&quot;&gt;Access tests by curl&lt;/font&gt;" style="edgeLabel;html=1;align=center;verticalAlign=middle;resizable=0;points=[];" parent="4hPwGx1GiWuIFKirFlOj-78" vertex="1" connectable="0">
          <mxGeometry x="-0.0539" y="4" relative="1" as="geometry">
            <mxPoint y="1" as="offset" />
          </mxGeometry>
        </mxCell>
        <mxCell id="4hPwGx1GiWuIFKirFlOj-80" value="" style="shape=image;verticalLabelPosition=bottom;labelBackgroundColor=default;verticalAlign=top;aspect=fixed;imageAspect=0;image=data:image/png,iVBORw0KGgoAAAANSUhEUgAAACIAAAAqCAYAAADWFImvAAAAAXNSR0IArs4c6QAAAARnQU1BAACxjwv8YQUAAAAJcEhZcwAAHYcAAB2HAY/l8WUAAATASURBVFhH7ZZtbFNVHMZ/t2u7IhubrK5MmEVnhcJGNibbCEqWNTOYQTKMQeQlglMj0RqDMSYumCDRxJj4QkPEKBBAcSGYLBHiBxX3BSgNbLxsE1YEC8I2YApbt65d2+uH2rJ7784dzNcP+33qec7//PPc55zee6RLoU6Z/wEGtfBfMW5EzbgRNeNG1Eii98iH+zIJhgzUVISY64gAEI1JtPhNHO9I5+JVI9d7JQCsk2Tuy41S+lCYEscQxrREy+MdZg54JzDRIvPasl5FfzVCI2/vyiLQbQTAbotS5oxwsNlCT69+iDmT4lTNHcT3k/nW+twobz1zU12qQGik2W9mS2OmWh4TL9X2pVIVIXy8EkcEuy2qlu8Yuy1KySgm0DMiAeXORIMyh4SnzkjjGyY8dUbKHImzMRxRTbkzgrZai3BrojGJNz/PpsCWxqblib0ezoaGKD5/YmmZQxLW/Nwd493nbqQOsAhhIi1+Ez29BlYvTAOgvr6ezMxM6uvrAVL68N8j1fT0Gmjxm1K1IoRGjvvTAci3JoL1eDwEg0E8Ho9Cv52aZC89hEZ+6UpEfel6IlK3201GRgZut1uh305NspcewjOy7qPJRIYk3f2/nTPi88uYTTKfvPqbelqBMJHIUCJWn19mQ0OUjisyoQh0XEmMm7x+Dm0u5NDmQpq8/hFrkkaTvfQQJlL3fo5aUtC2p4bLZ74DYOrMamavOKAuUbDt9R61pECYiB4OS4BpxkBqPM0YwGG5NR4LY0rEYQnw7JRGZDmxVJIktnfV4h+0q0tTjCmR/vZTuLK8ajmFf9COc8ka8udVkT+vCueSNbomXFle+ttPqWUFGiP97acItp7Ele3VNXO+L4dcZym5zlLO94nTc2V5cWV7Cbae1DWj2JrI1S5+b0ocQIDvb8zn4M3y1Hg0KmaFqV0wwD3ZcYXe9Ws/Ey63MBi4wN2V1ZhzpyjmGSmRJHdqoqZigOdrghoTAFOmTSSr/BEmOgvVUyk0hzXS3QnAul3iRWqWPjrA4ooQxOMYdu9H7riI/M7LALz3w1YKrPk8MedxDJLwubWJmG15mG15anlEJOCpqj9NxOJIW7+GH48hXbmWqunuu8bhC818cayRmKxNK4nGSBKLecR/dQpJglXV/TxWGoJoDGlLA5LvtLosxYnLbez07SMaj6mnQM/I5Ek67iVYuyhIZfEgRKJIH3+J1HxGXaahtfMs2442MBTT3vyERmbbxde7xfMHWFAYhnAEwwe7kU6fU5cIOdt9ns+O7CEcVfYXGlk4J4xB8K2qLA4DYNj8FZy5oJ4elXPXA+w4ulehCY3ca42xuKhLLf9jCI30n22jIrgXl137xE0nEjeuuPtpmHm/enpUCqx21pYvU2hCIwPtpyEWx2X4hiVFnYpt2n/kLg63pYPFTHz9auSiB4cv1WWG7QFemL+CdKNZoQuNWKYXIBlNZBQVU7vIzMY1N6guDZFnjWE2yWz/NoOmkxYwG5FfWYk816luoaEwbwZ15csxpWlvc5o365iJxTF8ug98rSBJxHdsBGB94yYAiqfOYuXDS0kTvF1HVsdCmoH4i08iV5Yi51lTsi0zh4rpJazSMcHfmshfRGzxX2bciJo/APrE5n+2sVvPAAAAAElFTkSuQmCC;" parent="1" vertex="1">
          <mxGeometry x="926" y="955" width="123.05" height="152" as="geometry" />
        </mxCell>
        <mxCell id="4hPwGx1GiWuIFKirFlOj-81" value="Environment &quot;Developpment&quot;" style="text;html=1;align=center;verticalAlign=middle;whiteSpace=wrap;rounded=0;fontSize=19;fontStyle=1" parent="1" vertex="1">
          <mxGeometry x="828.5" y="1135" width="310" height="30" as="geometry" />
        </mxCell>
        <mxCell id="4hPwGx1GiWuIFKirFlOj-82" value="" style="rounded=1;whiteSpace=wrap;html=1;" parent="1" vertex="1">
          <mxGeometry x="818.5" y="1280" width="331.5" height="380" as="geometry" />
        </mxCell>
        <mxCell id="4hPwGx1GiWuIFKirFlOj-83" value="" style="shape=image;verticalLabelPosition=bottom;labelBackgroundColor=default;verticalAlign=top;aspect=fixed;imageAspect=0;image=https://uploads-ssl.webflow.com/5e5a5c35a623e45f7f701878/5e99435c7ab3fdfb624ac319_Screen-Shot-2020-03-11-at-12.50.59-AM-768x616.png;clipPath=inset(0.62% 4.33% 79.88% 80%);" parent="1" vertex="1">
          <mxGeometry x="927.5" y="1290" width="115" height="115" as="geometry" />
        </mxCell>
        <mxCell id="4hPwGx1GiWuIFKirFlOj-84" style="rounded=0;orthogonalLoop=1;jettySize=auto;html=1;exitX=0.5;exitY=1;exitDx=0;exitDy=0;" parent="1" source="4hPwGx1GiWuIFKirFlOj-83" edge="1">
          <mxGeometry relative="1" as="geometry">
            <mxPoint x="993.5" y="1440" as="sourcePoint" />
            <mxPoint x="985" y="1480" as="targetPoint" />
          </mxGeometry>
        </mxCell>
        <mxCell id="4hPwGx1GiWuIFKirFlOj-85" value="&lt;font style=&quot;font-size: 16px;&quot;&gt;Scale&lt;/font&gt;" style="edgeLabel;html=1;align=center;verticalAlign=middle;resizable=0;points=[];" parent="4hPwGx1GiWuIFKirFlOj-84" vertex="1" connectable="0">
          <mxGeometry x="-0.0539" y="4" relative="1" as="geometry">
            <mxPoint x="-5" y="-1" as="offset" />
          </mxGeometry>
        </mxCell>
        <mxCell id="4hPwGx1GiWuIFKirFlOj-87" value="Environment &quot;Production&quot;" style="text;html=1;align=center;verticalAlign=middle;whiteSpace=wrap;rounded=0;fontSize=19;fontStyle=1" parent="1" vertex="1">
          <mxGeometry x="838.5" y="1615" width="310" height="30" as="geometry" />
        </mxCell>
        <mxCell id="4hPwGx1GiWuIFKirFlOj-88" value="" style="shape=image;verticalLabelPosition=bottom;labelBackgroundColor=default;verticalAlign=top;aspect=fixed;imageAspect=0;image=https://uploads-ssl.webflow.com/5e5a5c35a623e45f7f701878/5e99435c7ab3fdfb624ac319_Screen-Shot-2020-03-11-at-12.50.59-AM-768x616.png;clipPath=inset(0.62% 4.33% 79.88% 80%);" parent="1" vertex="1">
          <mxGeometry x="850.46" y="1500" width="85" height="85" as="geometry" />
        </mxCell>
        <mxCell id="4hPwGx1GiWuIFKirFlOj-89" value="" style="shape=image;verticalLabelPosition=bottom;labelBackgroundColor=default;verticalAlign=top;aspect=fixed;imageAspect=0;image=https://uploads-ssl.webflow.com/5e5a5c35a623e45f7f701878/5e99435c7ab3fdfb624ac319_Screen-Shot-2020-03-11-at-12.50.59-AM-768x616.png;clipPath=inset(0.62% 4.33% 79.88% 80%);" parent="1" vertex="1">
          <mxGeometry x="945.46" y="1500" width="82.5" height="82.5" as="geometry" />
        </mxCell>
        <mxCell id="4hPwGx1GiWuIFKirFlOj-90" value="" style="shape=image;verticalLabelPosition=bottom;labelBackgroundColor=default;verticalAlign=top;aspect=fixed;imageAspect=0;image=https://uploads-ssl.webflow.com/5e5a5c35a623e45f7f701878/5e99435c7ab3fdfb624ac319_Screen-Shot-2020-03-11-at-12.50.59-AM-768x616.png;clipPath=inset(0.62% 4.33% 79.88% 80%);" parent="1" vertex="1">
          <mxGeometry x="1036.53" y="1500" width="80" height="80" as="geometry" />
        </mxCell>
        <mxCell id="4hPwGx1GiWuIFKirFlOj-91" style="edgeStyle=orthogonalEdgeStyle;rounded=0;orthogonalLoop=1;jettySize=auto;html=1;entryX=0.5;entryY=0;entryDx=0;entryDy=0;entryPerimeter=0;" parent="1" source="4hPwGx1GiWuIFKirFlOj-53" target="4hPwGx1GiWuIFKirFlOj-83" edge="1">
          <mxGeometry relative="1" as="geometry" />
        </mxCell>
        <mxCell id="4hPwGx1GiWuIFKirFlOj-92" value="&lt;font style=&quot;font-size: 16px;&quot;&gt;Kubernetes deployment if tests were passed&lt;/font&gt;" style="edgeLabel;html=1;align=center;verticalAlign=middle;resizable=0;points=[];" parent="4hPwGx1GiWuIFKirFlOj-91" vertex="1" connectable="0">
          <mxGeometry x="-0.1991" y="1" relative="1" as="geometry">
            <mxPoint y="-1" as="offset" />
          </mxGeometry>
        </mxCell>
        <mxCell id="4hPwGx1GiWuIFKirFlOj-93" style="edgeStyle=orthogonalEdgeStyle;rounded=0;orthogonalLoop=1;jettySize=auto;html=1;exitX=0;exitY=0.75;exitDx=0;exitDy=0;entryX=0.011;entryY=0.417;entryDx=0;entryDy=0;entryPerimeter=0;" parent="1" source="4hPwGx1GiWuIFKirFlOj-83" target="4hPwGx1GiWuIFKirFlOj-82" edge="1">
          <mxGeometry relative="1" as="geometry">
            <mxPoint x="1016.5" y="1415" as="sourcePoint" />
            <mxPoint x="1015.5" y="1495" as="targetPoint" />
            <Array as="points">
              <mxPoint x="900" y="1376" />
              <mxPoint x="900" y="1395" />
              <mxPoint x="849" y="1395" />
              <mxPoint x="849" y="1433" />
              <mxPoint x="822" y="1433" />
            </Array>
          </mxGeometry>
        </mxCell>
        <mxCell id="4hPwGx1GiWuIFKirFlOj-94" value="&lt;font style=&quot;font-size: 16px;&quot;&gt;Service expose&lt;/font&gt;" style="edgeLabel;html=1;align=center;verticalAlign=middle;resizable=0;points=[];" parent="4hPwGx1GiWuIFKirFlOj-93" vertex="1" connectable="0">
          <mxGeometry x="-0.0539" y="4" relative="1" as="geometry">
            <mxPoint x="13" y="1" as="offset" />
          </mxGeometry>
        </mxCell>
        <mxCell id="4hPwGx1GiWuIFKirFlOj-96" value="" style="endArrow=none;html=1;rounded=0;entryX=-0.008;entryY=0.381;entryDx=0;entryDy=0;entryPerimeter=0;strokeWidth=4;" parent="1" edge="1">
          <mxGeometry width="50" height="50" relative="1" as="geometry">
            <mxPoint x="811.5" y="1431" as="sourcePoint" />
            <mxPoint x="828.8599999999997" y="1430.78" as="targetPoint" />
          </mxGeometry>
        </mxCell>
        <mxCell id="4hPwGx1GiWuIFKirFlOj-97" value="" style="endArrow=none;html=1;rounded=0;entryX=-0.008;entryY=0.381;entryDx=0;entryDy=0;entryPerimeter=0;strokeWidth=4;" parent="1" edge="1">
          <mxGeometry width="50" height="50" relative="1" as="geometry">
            <mxPoint x="811.5" y="1438" as="sourcePoint" />
            <mxPoint x="828.8599999999997" y="1437.78" as="targetPoint" />
          </mxGeometry>
        </mxCell>
        <mxCell id="4hPwGx1GiWuIFKirFlOj-64" value="" style="rounded=1;whiteSpace=wrap;html=1;fillColor=none;strokeColor=light-dark(#DEDE00,#EDEDED);strokeWidth=7;" parent="1" vertex="1">
          <mxGeometry x="740" y="90" width="480" height="1510" as="geometry" />
        </mxCell>
        <mxCell id="4hPwGx1GiWuIFKirFlOj-98" value="Jenkins pipeline" style="text;html=1;align=center;verticalAlign=middle;whiteSpace=wrap;rounded=0;fontSize=28;fontStyle=1;fontColor=light-dark(#73810e, #ededed);" parent="1" vertex="1">
          <mxGeometry x="873" y="50" width="228.93" height="30" as="geometry" />
        </mxCell>
        <mxCell id="oefUEezAQd85SVfJ0pMh-1" style="rounded=0;orthogonalLoop=1;jettySize=auto;html=1;entryX=0.5;entryY=0;entryDx=0;entryDy=0;" edge="1" parent="1" target="oefUEezAQd85SVfJ0pMh-3" source="4hPwGx1GiWuIFKirFlOj-38">
          <mxGeometry relative="1" as="geometry">
            <mxPoint x="980.4599999999999" y="320" as="sourcePoint" />
            <mxPoint x="980.4599999999999" y="405" as="targetPoint" />
          </mxGeometry>
        </mxCell>
        <mxCell id="oefUEezAQd85SVfJ0pMh-2" value="&lt;font style=&quot;font-size: 16px;&quot;&gt;unit tests&lt;/font&gt;" style="edgeLabel;html=1;align=center;verticalAlign=middle;resizable=0;points=[];" vertex="1" connectable="0" parent="oefUEezAQd85SVfJ0pMh-1">
          <mxGeometry x="-0.0539" y="4" relative="1" as="geometry">
            <mxPoint y="1" as="offset" />
          </mxGeometry>
        </mxCell>
        <mxCell id="oefUEezAQd85SVfJ0pMh-3" value="" style="shape=image;verticalLabelPosition=bottom;labelBackgroundColor=default;verticalAlign=top;aspect=fixed;imageAspect=0;image=data:image/png,iVBORw0KGgoAAAANSUhEUgAAACIAAAAqCAYAAADWFImvAAAAAXNSR0IArs4c6QAAAARnQU1BAACxjwv8YQUAAAAJcEhZcwAAHYcAAB2HAY/l8WUAAATASURBVFhH7ZZtbFNVHMZ/t2u7IhubrK5MmEVnhcJGNibbCEqWNTOYQTKMQeQlglMj0RqDMSYumCDRxJj4QkPEKBBAcSGYLBHiBxX3BSgNbLxsE1YEC8I2YApbt65d2+uH2rJ7784dzNcP+33qec7//PPc55zee6RLoU6Z/wEGtfBfMW5EzbgRNeNG1Eii98iH+zIJhgzUVISY64gAEI1JtPhNHO9I5+JVI9d7JQCsk2Tuy41S+lCYEscQxrREy+MdZg54JzDRIvPasl5FfzVCI2/vyiLQbQTAbotS5oxwsNlCT69+iDmT4lTNHcT3k/nW+twobz1zU12qQGik2W9mS2OmWh4TL9X2pVIVIXy8EkcEuy2qlu8Yuy1KySgm0DMiAeXORIMyh4SnzkjjGyY8dUbKHImzMRxRTbkzgrZai3BrojGJNz/PpsCWxqblib0ezoaGKD5/YmmZQxLW/Nwd493nbqQOsAhhIi1+Ez29BlYvTAOgvr6ezMxM6uvrAVL68N8j1fT0Gmjxm1K1IoRGjvvTAci3JoL1eDwEg0E8Ho9Cv52aZC89hEZ+6UpEfel6IlK3201GRgZut1uh305NspcewjOy7qPJRIYk3f2/nTPi88uYTTKfvPqbelqBMJHIUCJWn19mQ0OUjisyoQh0XEmMm7x+Dm0u5NDmQpq8/hFrkkaTvfQQJlL3fo5aUtC2p4bLZ74DYOrMamavOKAuUbDt9R61pECYiB4OS4BpxkBqPM0YwGG5NR4LY0rEYQnw7JRGZDmxVJIktnfV4h+0q0tTjCmR/vZTuLK8ajmFf9COc8ka8udVkT+vCueSNbomXFle+ttPqWUFGiP97acItp7Ele3VNXO+L4dcZym5zlLO94nTc2V5cWV7Cbae1DWj2JrI1S5+b0ocQIDvb8zn4M3y1Hg0KmaFqV0wwD3ZcYXe9Ws/Ey63MBi4wN2V1ZhzpyjmGSmRJHdqoqZigOdrghoTAFOmTSSr/BEmOgvVUyk0hzXS3QnAul3iRWqWPjrA4ooQxOMYdu9H7riI/M7LALz3w1YKrPk8MedxDJLwubWJmG15mG15anlEJOCpqj9NxOJIW7+GH48hXbmWqunuu8bhC818cayRmKxNK4nGSBKLecR/dQpJglXV/TxWGoJoDGlLA5LvtLosxYnLbez07SMaj6mnQM/I5Ek67iVYuyhIZfEgRKJIH3+J1HxGXaahtfMs2442MBTT3vyERmbbxde7xfMHWFAYhnAEwwe7kU6fU5cIOdt9ns+O7CEcVfYXGlk4J4xB8K2qLA4DYNj8FZy5oJ4elXPXA+w4ulehCY3ca42xuKhLLf9jCI30n22jIrgXl137xE0nEjeuuPtpmHm/enpUCqx21pYvU2hCIwPtpyEWx2X4hiVFnYpt2n/kLg63pYPFTHz9auSiB4cv1WWG7QFemL+CdKNZoQuNWKYXIBlNZBQVU7vIzMY1N6guDZFnjWE2yWz/NoOmkxYwG5FfWYk816luoaEwbwZ15csxpWlvc5o365iJxTF8ug98rSBJxHdsBGB94yYAiqfOYuXDS0kTvF1HVsdCmoH4i08iV5Yi51lTsi0zh4rpJazSMcHfmshfRGzxX2bciJo/APrE5n+2sVvPAAAAAElFTkSuQmCC;" vertex="1" parent="1">
          <mxGeometry x="929.2" y="350" width="116.53" height="143.95" as="geometry" />
        </mxCell>
      </root>
    </mxGraphModel>
  </diagram>
</mxfile>
